# This file uses centimeters as units for non-parametric coordinates.

mtllib barrack.mtl
g default
v -1.148631 -0.035876 2.211870
v -0.325063 -0.035876 2.211870
v -1.148631 0.964124 2.211870
v -0.325063 0.964124 2.211870
v -1.148631 0.964124 1.211870
v -0.325063 0.964124 1.211870
v -1.148631 -0.035876 1.211870
v -0.325063 -0.035876 1.211870
vt 0.375000 0.000000
vt 0.625000 0.000000
vt 0.375000 0.250000
vt 0.625000 0.250000
vt 0.375000 0.500000
vt 0.625000 0.500000
vt 0.375000 0.750000
vt 0.625000 0.750000
vt 0.375000 1.000000
vt 0.625000 1.000000
vt 0.875000 0.000000
vt 0.875000 0.250000
vt 0.125000 0.000000
vt 0.125000 0.250000
vn 0.000000 0.000000 1.000000
vn 0.000000 0.000000 1.000000
vn 0.000000 0.000000 1.000000
vn 0.000000 0.000000 1.000000
vn 0.000000 1.000000 0.000000
vn 0.000000 1.000000 0.000000
vn 0.000000 1.000000 0.000000
vn 0.000000 1.000000 0.000000
vn 0.000000 0.000000 -1.000000
vn 0.000000 0.000000 -1.000000
vn 0.000000 0.000000 -1.000000
vn 0.000000 0.000000 -1.000000
vn 0.000000 -1.000000 0.000000
vn 0.000000 -1.000000 0.000000
vn 0.000000 -1.000000 0.000000
vn 0.000000 -1.000000 0.000000
vn 1.000000 0.000000 0.000000
vn 1.000000 0.000000 0.000000
vn 1.000000 0.000000 0.000000
vn 1.000000 0.000000 0.000000
vn -1.000000 0.000000 0.000000
vn -1.000000 0.000000 0.000000
vn -1.000000 0.000000 0.000000
vn -1.000000 0.000000 0.000000
s off
g pCube2 group1
usemtl initialShadingGroup
f 1/1/1 2/2/2 4/4/3 3/3/4
f 3/3/5 4/4/6 6/6/7 5/5/8
f 5/5/9 6/6/10 8/8/11 7/7/12
f 7/7/13 8/8/14 2/10/15 1/9/16
f 2/2/17 8/11/18 6/12/19 4/4/20
f 7/13/21 1/1/22 3/3/23 5/14/24
g default
v -0.567750 0.875990 1.468492
v -0.877003 0.875990 1.468492
v -1.031629 0.875990 1.736313
v -0.877003 0.875990 2.004133
v -0.567750 0.875990 2.004133
v -0.413124 0.875990 1.736313
v -0.567750 2.878934 1.468492
v -0.877003 2.878934 1.468492
v -1.031629 2.878934 1.736313
v -0.877003 2.878934 2.004133
v -0.567750 2.878934 2.004133
v -0.413124 2.878934 1.736313
v -0.722376 0.875990 1.736313
v -0.722376 2.878934 1.736313
vt 0.578125 0.020934
vt 0.421875 0.020934
vt 0.343750 0.156250
vt 0.421875 0.291566
vt 0.578125 0.291566
vt 0.656250 0.156250
vt 0.375000 0.312500
vt 0.416667 0.312500
vt 0.458333 0.312500
vt 0.500000 0.312500
vt 0.541667 0.312500
vt 0.583333 0.312500
vt 0.625000 0.312500
vt 0.375000 0.688440
vt 0.416667 0.688440
vt 0.458333 0.688440
vt 0.500000 0.688440
vt 0.541667 0.688440
vt 0.583333 0.688440
vt 0.625000 0.688440
vt 0.578125 0.708434
vt 0.421875 0.708434
vt 0.343750 0.843750
vt 0.421875 0.979066
vt 0.578125 0.979066
vt 0.656250 0.843750
vt 0.500000 0.150000
vt 0.500000 0.837500
vn 0.000000 0.000000 -1.000000
vn 0.000000 0.000000 -1.000000
vn 0.000000 0.000000 -1.000000
vn 0.000000 0.000000 -1.000000
vn -0.866025 0.000000 -0.500000
vn -0.866025 0.000000 -0.500000
vn -0.866025 0.000000 -0.500000
vn -0.866025 0.000000 -0.500000
vn -0.866026 0.000000 0.500000
vn -0.866026 0.000000 0.500000
vn -0.866026 0.000000 0.500000
vn -0.866026 0.000000 0.500000
vn -0.000000 0.000000 1.000000
vn -0.000000 0.000000 1.000000
vn -0.000000 0.000000 1.000000
vn -0.000000 0.000000 1.000000
vn 0.866025 0.000000 0.500000
vn 0.866025 0.000000 0.500000
vn 0.866025 0.000000 0.500000
vn 0.866025 0.000000 0.500000
vn 0.866026 0.000000 -0.500000
vn 0.866026 0.000000 -0.500000
vn 0.866026 0.000000 -0.500000
vn 0.866026 0.000000 -0.500000
vn 0.000000 -1.000000 0.000000
vn 0.000000 -1.000000 0.000000
vn 0.000000 -1.000000 0.000000
vn 0.000000 -1.000000 0.000000
vn 0.000000 -1.000000 -0.000000
vn 0.000000 -1.000000 -0.000000
vn 0.000000 -1.000000 0.000000
vn 0.000000 1.000000 0.000000
vn 0.000000 1.000000 -0.000000
vn 0.000000 1.000000 0.000000
vn 0.000000 1.000000 -0.000000
vn 0.000000 1.000000 0.000000
vn 0.000000 1.000000 0.000000
vn 0.000000 1.000000 0.000000
s off
g group1 pCylinder1
usemtl initialShadingGroup
f 9/21/25 10/22/26 16/29/27 15/28/28
f 10/22/29 11/23/30 17/30/31 16/29/32
f 11/23/33 12/24/34 18/31/35 17/30/36
f 12/24/37 13/25/38 19/32/39 18/31/40
f 13/25/41 14/26/42 20/33/43 19/32/44
f 14/26/45 9/27/46 15/34/47 20/33/48
s 1
f 10/16/49 9/15/50 21/41/51
f 11/17/52 10/16/49 21/41/51
f 12/18/53 11/17/52 21/41/51
f 13/19/54 12/18/53 21/41/51
f 14/20/55 13/19/54 21/41/51
f 9/15/50 14/20/55 21/41/51
s 2
f 15/39/56 16/38/57 22/42/58
f 16/38/57 17/37/59 22/42/58
f 17/37/59 18/36/60 22/42/58
f 18/36/60 19/35/61 22/42/58
f 19/35/61 20/40/62 22/42/58
f 20/40/62 15/39/56 22/42/58
g default
v -1.598224 1.743265 -1.311852
v 1.598224 1.743265 -1.311852
v 1.598224 1.390003 -1.311852
v -1.598224 1.390003 -1.311852
v -1.598224 1.743265 1.311851
v -1.598224 2.184843 1.055570
v -1.598224 2.184843 -1.055570
v 1.598224 2.184843 -1.055570
v 1.598224 1.307247 -0.860505
v 1.288885 1.307247 -0.860505
v 1.288885 1.455877 -0.000000
v 1.598224 1.390003 1.311851
v -1.598224 1.390003 1.311851
v 1.598224 2.184843 1.055570
v 1.288885 1.307247 0.860504
v 1.598224 1.743265 1.311851
v 1.598224 1.307247 0.860504
v 1.598224 1.390003 -0.381380
v 1.598224 1.455877 -0.000000
v 1.598224 1.390003 0.381380
vt 0.375000 0.550000
vt 0.625000 0.550000
vt 0.625000 0.590000
vt 0.375000 0.590000
vt 0.125000 0.200000
vt 0.375000 0.200000
vt 0.375000 0.250000
vt 0.125000 0.250000
vt 0.375000 0.500000
vt 0.625000 0.500000
vt 0.433749 0.500000
vt 0.375000 0.500000
vt 0.625000 0.160000
vt 0.375000 0.160000
vt 0.625000 0.250000
vt 0.375000 0.250000
vt 0.625000 0.200000
vt 0.433749 0.250000
vt 0.875000 0.200000
vt 0.875000 0.250000
vt 0.375000 0.375000
vt 0.433749 0.430401
vt 0.433749 0.375000
vt 0.433749 0.319599
vt 0.713660 0.160000
vt 0.750000 0.167459
vt 0.786340 0.160000
vt 0.875000 0.160000
vt 0.125000 0.160000
vn 0.000000 0.306875 -0.951750
vn 0.000000 0.306875 -0.951750
vn 0.000000 0.000000 -1.000000
vn 0.000000 0.000000 -1.000000
vn -1.000000 0.000000 0.000000
vn -1.000000 0.000000 0.000000
vn -1.000000 0.000000 0.000000
vn -1.000000 0.000000 0.000000
vn 0.000000 0.501962 -0.864889
vn 0.000000 0.501962 -0.864889
vn 0.000000 1.000000 0.000000
vn 0.000000 1.000000 0.000000
vn 0.000000 1.000000 0.000000
vn 0.000000 1.000000 0.000000
vn 0.000000 0.000000 1.000000
vn 0.000000 0.000000 1.000000
vn 0.000000 0.306874 0.951750
vn 0.000000 0.306874 0.951750
vn 0.000000 0.501962 0.864890
vn 0.000000 0.501962 0.864890
vn 1.000000 -0.000000 0.000000
vn 1.000000 -0.000000 0.000000
vn 1.000000 0.000000 0.000000
vn 1.000000 0.000000 0.000000
vn -0.000000 -1.000000 0.000000
vn -0.000000 -0.985409 0.170204
vn -0.000000 -0.985409 0.170204
vn -0.000000 -0.985409 0.170204
vn -0.000000 -1.000000 0.000000
vn -0.000000 -0.985409 -0.170204
vn -0.000000 -0.985409 -0.170204
vn -0.000000 -0.985409 -0.170204
vn 1.000000 -0.000001 0.000000
vn 1.000000 -0.000001 0.000000
vn 1.000000 -0.000001 0.000000
vn 1.000000 -0.000001 0.000000
vn 1.000000 -0.000001 0.000000
vn -1.000000 0.000000 0.000000
vn -1.000000 0.000000 0.000000
s 1
g group1 pCube6
usemtl initialShadingGroup
f 23/43/63 24/44/64 25/45/65 26/46/66
s 2
f 23/47/67 27/48/68 28/49/69 29/50/70
s 1
f 29/51/71 30/52/72 24/44/64 23/43/63
s off
f 28/49/73 36/57/74 30/52/75 29/51/76
s 3
f 35/56/77 34/55/78 38/59/79 27/48/80
f 27/48/80 38/59/79 36/57/81 28/49/82
s 4
f 38/59/83 24/61/84 30/62/85 36/57/86
s 5
f 33/63/87 32/54/88 31/53/89 40/64/90 41/65/91
f 37/58/92 33/63/87 41/65/91 42/66/93 39/60/94
s 4
f 34/55/95 42/67/96 41/68/97 40/69/98 25/70/99 24/61/84 38/59/83
s 2
f 26/71/100 35/56/101 27/48/68 23/47/67
g default
v 0.409241 -0.035876 2.211870
v 1.232808 -0.035876 2.211870
v 0.409241 0.964124 2.211870
v 1.232808 0.964124 2.211870
v 0.409241 0.964124 1.211870
v 1.232808 0.964124 1.211870
v 0.409241 -0.035876 1.211870
v 1.232808 -0.035876 1.211870
vt 0.375000 0.000000
vt 0.625000 0.000000
vt 0.375000 0.250000
vt 0.625000 0.250000
vt 0.375000 0.500000
vt 0.625000 0.500000
vt 0.375000 0.750000
vt 0.625000 0.750000
vt 0.375000 1.000000
vt 0.625000 1.000000
vt 0.875000 0.000000
vt 0.875000 0.250000
vt 0.125000 0.000000
vt 0.125000 0.250000
vn 0.000000 0.000000 1.000000
vn 0.000000 0.000000 1.000000
vn 0.000000 0.000000 1.000000
vn 0.000000 0.000000 1.000000
vn 0.000000 1.000000 0.000000
vn 0.000000 1.000000 0.000000
vn 0.000000 1.000000 0.000000
vn 0.000000 1.000000 0.000000
vn 0.000000 0.000000 -1.000000
vn 0.000000 0.000000 -1.000000
vn 0.000000 0.000000 -1.000000
vn 0.000000 0.000000 -1.000000
vn 0.000000 -1.000000 0.000000
vn 0.000000 -1.000000 0.000000
vn 0.000000 -1.000000 0.000000
vn 0.000000 -1.000000 0.000000
vn 1.000000 0.000000 0.000000
vn 1.000000 0.000000 0.000000
vn 1.000000 0.000000 0.000000
vn 1.000000 0.000000 0.000000
vn -1.000000 0.000000 0.000000
vn -1.000000 0.000000 0.000000
vn -1.000000 0.000000 0.000000
vn -1.000000 0.000000 0.000000
s off
g group1 pCube3
usemtl initialShadingGroup
f 43/72/102 44/73/103 46/75/104 45/74/105
f 45/74/106 46/75/107 48/77/108 47/76/109
f 47/76/110 48/77/111 50/79/112 49/78/113
f 49/78/114 50/79/115 44/81/116 43/80/117
f 44/73/118 50/82/119 48/83/120 46/75/121
f 49/84/122 43/72/123 45/74/124 47/85/125
g default
v 0.992901 0.875990 1.468492
v 0.683648 0.875990 1.468492
v 0.529022 0.875990 1.736313
v 0.683648 0.875990 2.004133
v 0.992901 0.875990 2.004133
v 1.147527 0.875990 1.736313
v 0.992901 2.878934 1.468492
v 0.683648 2.878934 1.468492
v 0.529022 2.878934 1.736313
v 0.683648 2.878934 2.004133
v 0.992901 2.878934 2.004133
v 1.147527 2.878934 1.736313
v 0.838274 0.875990 1.736313
v 0.838274 2.878934 1.736313
vt 0.578125 0.020934
vt 0.421875 0.020934
vt 0.343750 0.156250
vt 0.421875 0.291566
vt 0.578125 0.291566
vt 0.656250 0.156250
vt 0.375000 0.312500
vt 0.416667 0.312500
vt 0.458333 0.312500
vt 0.500000 0.312500
vt 0.541667 0.312500
vt 0.583333 0.312500
vt 0.625000 0.312500
vt 0.375000 0.688440
vt 0.416667 0.688440
vt 0.458333 0.688440
vt 0.500000 0.688440
vt 0.541667 0.688440
vt 0.583333 0.688440
vt 0.625000 0.688440
vt 0.578125 0.708434
vt 0.421875 0.708434
vt 0.343750 0.843750
vt 0.421875 0.979066
vt 0.578125 0.979066
vt 0.656250 0.843750
vt 0.500000 0.150000
vt 0.500000 0.837500
vn 0.000000 0.000000 -1.000000
vn 0.000000 0.000000 -1.000000
vn 0.000000 0.000000 -1.000000
vn 0.000000 0.000000 -1.000000
vn -0.866025 0.000000 -0.500000
vn -0.866025 0.000000 -0.500000
vn -0.866025 0.000000 -0.500000
vn -0.866025 0.000000 -0.500000
vn -0.866026 0.000000 0.500000
vn -0.866026 0.000000 0.500000
vn -0.866026 0.000000 0.500000
vn -0.866026 0.000000 0.500000
vn -0.000000 0.000000 1.000000
vn -0.000000 0.000000 1.000000
vn -0.000000 0.000000 1.000000
vn -0.000000 0.000000 1.000000
vn 0.866025 0.000000 0.500000
vn 0.866025 0.000000 0.500000
vn 0.866025 0.000000 0.500000
vn 0.866025 0.000000 0.500000
vn 0.866026 0.000000 -0.500000
vn 0.866026 0.000000 -0.500000
vn 0.866026 0.000000 -0.500000
vn 0.866026 0.000000 -0.500000
vn 0.000000 -1.000000 0.000000
vn 0.000000 -1.000000 0.000000
vn 0.000000 -1.000000 0.000000
vn 0.000000 -1.000000 0.000000
vn 0.000000 -1.000000 -0.000000
vn 0.000000 -1.000000 -0.000000
vn 0.000000 -1.000000 0.000000
vn 0.000000 1.000000 0.000000
vn 0.000000 1.000000 -0.000000
vn 0.000000 1.000000 0.000000
vn 0.000000 1.000000 -0.000000
vn 0.000000 1.000000 0.000000
vn 0.000000 1.000000 0.000000
vn 0.000000 1.000000 0.000000
s off
g group1 pCylinder2
usemtl initialShadingGroup
f 51/92/126 52/93/127 58/100/128 57/99/129
f 52/93/130 53/94/131 59/101/132 58/100/133
f 53/94/134 54/95/135 60/102/136 59/101/137
f 54/95/138 55/96/139 61/103/140 60/102/141
f 55/96/142 56/97/143 62/104/144 61/103/145
f 56/97/146 51/98/147 57/105/148 62/104/149
s 1
f 52/87/150 51/86/151 63/112/152
f 53/88/153 52/87/150 63/112/152
f 54/89/154 53/88/153 63/112/152
f 55/90/155 54/89/154 63/112/152
f 56/91/156 55/90/155 63/112/152
f 51/86/151 56/91/156 63/112/152
s 2
f 57/110/157 58/109/158 64/113/159
f 58/109/158 59/108/160 64/113/159
f 59/108/160 60/107/161 64/113/159
f 60/107/161 61/106/162 64/113/159
f 61/106/162 62/111/163 64/113/159
f 62/111/163 57/110/157 64/113/159
g default
v 1.598224 1.390003 -1.311852
v -1.598224 1.390003 -1.311852
v 1.598224 -0.009110 0.000000
v 1.598224 -0.009110 -0.860505
v 1.288885 -0.009110 -0.860505
v 1.288885 -0.009110 0.000000
v 1.598224 1.307247 -0.860505
v 1.288885 1.307247 -0.860505
v 1.288885 1.455877 0.000000
v 1.598224 -0.009110 0.860505
v 1.288885 -0.009110 0.860505
v -1.598224 -0.023044 1.311852
v 1.598224 -0.023044 1.311852
v 1.598224 1.390003 1.311852
v -1.598224 1.390003 1.311852
v 1.288885 1.307247 0.860505
v 1.598224 1.307247 0.860505
v 1.598224 1.390003 -0.381380
v 1.598224 1.455877 0.000000
v 1.598224 1.390003 0.381380
v 1.598224 -0.023044 -1.311852
v -1.598224 -0.023044 -1.311852
vt 0.625000 0.590000
vt 0.375000 0.590000
vt 0.433749 0.875000
vt 0.433749 0.750000
vt 0.375000 0.750000
vt 0.375000 0.875000
vt 0.433749 0.500000
vt 0.375000 0.500000
vt 0.125000 0.000000
vt 0.125000 0.250000
vt 0.250000 0.250000
vt 0.250000 0.000000
vt 0.433749 1.000000
vt 0.375000 1.000000
vt 0.375000 0.000000
vt 0.625000 0.000000
vt 0.625000 0.160000
vt 0.375000 0.160000
vt 0.375000 0.250000
vt 0.375000 0.000000
vt 0.433749 0.250000
vt 0.433749 0.000000
vt 0.375000 0.375000
vt 0.433749 0.430401
vt 0.433749 0.375000
vt 0.433749 0.319599
vt 0.713660 0.160000
vt 0.786340 0.160000
vt 0.875000 0.160000
vt 0.875000 0.000000
vt 0.831993 0.150629
vt 0.831993 0.001578
vt 0.750000 0.001578
vt 0.668007 0.001578
vt 0.668007 0.150629
vt 0.375000 0.750000
vt 0.625000 0.750000
vt 0.625000 1.000000
vt 0.375000 1.000000
vt 0.125000 0.160000
vt 0.125000 0.000000
vn 0.000000 1.000000 0.000000
vn 0.000000 1.000000 0.000000
vn 0.000000 1.000000 0.000000
vn 0.000000 1.000000 0.000000
vn 0.000000 0.000000 1.000000
vn 0.000000 0.000000 1.000000
vn 0.000000 0.000000 1.000000
vn 0.000000 0.000000 1.000000
vn 1.000000 0.000000 0.000000
vn 1.000000 0.000000 0.000000
vn 1.000000 0.000000 0.000000
vn 1.000000 0.000000 0.000000
vn 0.000000 1.000000 0.000000
vn 0.000000 1.000000 0.000000
vn 0.000000 0.000000 1.000000
vn 0.000000 0.000000 1.000000
vn 0.000000 0.000000 1.000000
vn 0.000000 0.000000 1.000000
vn 1.000000 0.000000 0.000000
vn 1.000000 0.000000 0.000000
vn 0.000000 0.000000 -1.000000
vn 0.000000 0.000000 -1.000000
vn 0.000000 0.000000 -1.000000
vn 0.000000 0.000000 -1.000000
vn 0.000000 -1.000000 0.000000
vn 0.000000 -0.985409 0.170204
vn 0.000000 -0.985409 0.170204
vn 0.000000 -0.985409 0.170204
vn 0.000000 -1.000000 0.000000
vn 0.000000 -0.985409 -0.170204
vn 0.000000 -0.985409 -0.170204
vn 0.000000 -0.985409 -0.170204
vn 1.000000 0.000000 0.000000
vn 1.000000 0.000000 0.000000
vn 1.000000 0.000000 0.000000
vn 1.000000 0.000000 0.000000
vn 1.000000 0.000000 0.000000
vn 1.000000 0.000000 0.000000
vn 1.000000 0.000000 0.000000
vn 1.000000 0.000000 0.000000
vn 1.000000 0.000000 0.000000
vn 1.000000 0.000000 0.000000
vn 1.000000 0.000000 0.000000
vn 0.000000 -1.000000 0.000000
vn 0.000000 -1.000000 0.000000
vn 0.000000 -1.000000 0.000000
vn 0.000000 -1.000000 0.000000
vn 0.000000 0.000000 -1.000000
vn 0.000000 0.000000 -1.000000
vn 0.000000 0.000000 -1.000000
vn 0.000000 0.000000 -1.000000
vn -1.000000 0.000000 0.000000
vn -1.000000 0.000000 0.000000
vn -1.000000 0.000000 0.000000
vn -1.000000 0.000000 0.000000
s 1
g group1 pCube5
usemtl initialShadingGroup
f 67/116/164 68/117/165 69/118/166 70/119/167
s off
f 68/117/168 71/120/169 72/121/170 69/118/171
s 2
f 69/122/172 72/123/173 73/124/174 70/125/175
s 1
f 74/126/176 67/116/164 70/119/167 75/127/177
s off
f 76/128/178 77/129/179 78/130/180 79/131/181
s 2
f 70/125/175 73/124/174 80/132/182 75/133/183
s off
f 81/134/184 74/135/185 75/133/186 80/132/187
s 3
f 73/136/188 72/121/189 71/120/190 82/137/191 83/138/192
f 80/132/193 73/136/188 83/138/192 84/139/194 81/134/195
s off
f 77/129/196 85/143/197 65/142/198 82/141/199 71/144/200 68/145/201 67/146/202 74/147/203 81/148/204 84/140/205 78/130/206
f 86/149/207 85/150/208 77/151/209 76/152/210
f 66/115/211 65/114/212 85/150/213 86/149/214
f 86/154/215 76/128/216 79/131/217 66/153/218
